<svg xmlns="http://www.w3.org/2000/svg" width="21" height="21" viewBox="0 0 21 21"><path d="M12.25 11.375h-3.5a.875.875 0 0 0-.875.875v7.875c0 .483.392.875.875.875h3.5a.875.875 0 0 0 .875-.875V12.25a.875.875 0 0 0-.875-.875zm-7.875 3.5h-3.5A.875.875 0 0 0 0 15.75v4.375c0 .483.392.875.875.875h3.5a.875.875 0 0 0 .875-.875V15.75a.875.875 0 0 0-.875-.875zm15.75-7h-3.5a.875.875 0 0 0-.875.875v11.375c0 .483.392.875.875.875h3.5a.875.875 0 0 0 .875-.875V8.75a.875.875 0 0 0-.875-.875zm-9.006.619l5.506-5.507v3.138h1.75V.875A.875.875 0 0 0 17.5 0h-5.25v1.75h3.138L10.5 6.638 7.619 3.756a.874.874 0 0 0-1.238 0L2.006 8.131 3.244 9.37 7 5.612l2.881 2.882a.874.874 0 0 0 1.238 0z" fill="#B8C1CB"/></svg>