<svg xmlns="http://www.w3.org/2000/svg" width="28" height="16" viewBox="0 0 28 16"><g fill="#B8C1CB"><ellipse cx="21" cy="13.2" rx="2.882" ry="2.8"/><path d="M27.601 6.15l-3.187-1.013-1.095-4.7A.577.577 0 0 0 22.75 0H.583A.57.57 0 0 0 0 .557c0 .307.26.556.583.556h12.834A.57.57 0 0 1 14 1.67a.57.57 0 0 1-.583.556H10.5v1.67h-7a.57.57 0 0 0-.583.556c0 .308.26.557.583.557h9.917a.57.57 0 0 1 .583.556.57.57 0 0 1-.583.557H10.5v1.67H6.417a.57.57 0 0 0-.584.556.57.57 0 0 0 .584.556h7a.57.57 0 0 1 .583.557.57.57 0 0 1-.583.556H10.5v2.226c0 .308.26.557.583.557h5.834c0-2.148 1.832-3.896 4.083-3.896 2.251 0 4.083 1.748 4.083 3.896h2.334a.57.57 0 0 0 .583-.557V6.678c0-.24-.16-.452-.399-.527z"/></g></svg>