<svg xmlns="http://www.w3.org/2000/svg" width="22" height="22" viewBox="0 0 22 22"><path fill="#FFF" d="M11 0C4.934 0 0 4.934 0 11s4.934 11 11 11 11-4.934 11-11S17.066 0 11 0zM4.583 11a.916.916 0 1 1-1.833 0 8.2 8.2 0 0 1 .813-3.548L4.962 8.85A6.358 6.358 0 0 0 4.583 11zM11 13.75A2.753 2.753 0 0 1 8.25 11c0-.424.104-.82.275-1.178L4.662 5.958l1.296-1.296 3.863 3.864c.36-.171.755-.276 1.179-.276A2.753 2.753 0 0 1 13.75 11 2.753 2.753 0 0 1 11 13.75zm7.333-1.833a.916.916 0 0 1-.916-.917A6.424 6.424 0 0 0 11 4.583a6.37 6.37 0 0 0-2.15.379L7.453 3.563A8.177 8.177 0 0 1 11 2.75c4.55 0 8.25 3.701 8.25 8.25 0 .506-.41.917-.917.917z"/></svg>