<svg xmlns="http://www.w3.org/2000/svg" xmlns:xlink="http://www.w3.org/1999/xlink" width="0" height="0" style="position:absolute">
	
		<symbol id="box-2" viewBox="0 0 17 17">
			<path d="M16.15 2.55L14.344.383C14.13.126 13.919 0 13.6 0H9.35l.744 2.55h6.056zm-9.244 0L7.65 0H3.4c-.319 0-.531.128-.744.383L.85 2.55h6.056zm3.719 7.127L8.5 8.63 6.375 9.677V3.4H0v12.554C0 16.582.425 17 1.063 17h14.874c.638 0 1.063-.418 1.063-1.046V3.4h-6.375v6.277z"></path>
		</symbol>
	
		<symbol id="chart-bar-33" viewBox="0 0 21 21">
			<path d="M12.25 11.375h-3.5a.875.875 0 0 0-.875.875v7.875c0 .483.392.875.875.875h3.5a.875.875 0 0 0 .875-.875V12.25a.875.875 0 0 0-.875-.875zm-7.875 3.5h-3.5A.875.875 0 0 0 0 15.75v4.375c0 .483.392.875.875.875h3.5a.875.875 0 0 0 .875-.875V15.75a.875.875 0 0 0-.875-.875zm15.75-7h-3.5a.875.875 0 0 0-.875.875v11.375c0 .483.392.875.875.875h3.5a.875.875 0 0 0 .875-.875V8.75a.875.875 0 0 0-.875-.875zm-9.006.619l5.506-5.507v3.138h1.75V.875A.875.875 0 0 0 17.5 0h-5.25v1.75h3.138L10.5 6.638 7.619 3.756a.874.874 0 0 0-1.238 0L2.006 8.131 3.244 9.37 7 5.612l2.881 2.882a.874.874 0 0 0 1.238 0z"></path>
		</symbol>
	
		<symbol id="dashboard" viewBox="0 0 24 20">
			<path d="M9.277 19.714v-6.958h4.639v6.958h5.798v-9.277h3.48L11.596 0 0 10.437h3.479v9.277z"></path>
		</symbol>
	
		<symbol id="delivery-fast-copy" viewBox="0 0 28 16">
			<g><ellipse cx="21" cy="13.2" rx="2.882" ry="2.8"></ellipse><path d="M27.601 6.15l-3.187-1.013-1.095-4.7A.577.577 0 0 0 22.75 0H.583A.57.57 0 0 0 0 .557c0 .307.26.556.583.556h12.834A.57.57 0 0 1 14 1.67a.57.57 0 0 1-.583.556H10.5v1.67h-7a.57.57 0 0 0-.583.556c0 .308.26.557.583.557h9.917a.57.57 0 0 1 .583.556.57.57 0 0 1-.583.557H10.5v1.67H6.417a.57.57 0 0 0-.584.556.57.57 0 0 0 .584.556h7a.57.57 0 0 1 .583.557.57.57 0 0 1-.583.556H10.5v2.226c0 .308.26.557.583.557h5.834c0-2.148 1.832-3.896 4.083-3.896 2.251 0 4.083 1.748 4.083 3.896h2.334a.57.57 0 0 0 .583-.557V6.678c0-.24-.16-.452-.399-.527z"></path></g>
		</symbol>
	
		<symbol id="layers-3" viewBox="0 0 21 21">
			<g><path d="M10.5 0L0 6.3l10.5 6.3L21 6.3zm0 18.441L2.14 13.44 0 14.72 10.5 21 21 14.72l-2.14-1.28z"></path><path d="M10.5 14.241L2.14 9.24 0 10.52l10.5 6.28L21 10.52l-2.14-1.28z"></path></g>
		</symbol>
	
		<symbol id="menu-left" viewBox="0 0 20 15">
			<path d="M10 15H1.25a1.25 1.25 0 0 1 0-2.5H10a1.25 1.25 0 0 1 0 2.5zm8.75-12.5H1.25a1.25 1.25 0 0 1 0-2.5h17.5a1.25 1.25 0 0 1 0 2.5zm0 6.25H1.25a1.25 1.25 0 0 1 0-2.5h17.5a1.25 1.25 0 0 1 0 2.5z"></path>
		</symbol>
	
		<symbol id="notification" viewBox="0 0 19 23">
			<path d="M9.5 23c1.431 0 2.59-1.144 2.59-2.556H6.91C6.91 21.856 8.068 23 9.5 23zm7.125-6.97v-5.937c0-3.651-1.942-6.697-5.344-7.504V1.78C11.281.796 10.486 0 9.5 0c-.986 0-1.781.796-1.781 1.781v.808c-3.402.807-5.344 3.853-5.344 7.504v5.937L0 18.405v1.188h19v-1.188l-2.375-2.375z"></path>
		</symbol>
	
		<symbol id="shape" viewBox="0 0 22 22">
			<path d="M11 0C4.934 0 0 4.934 0 11s4.934 11 11 11 11-4.934 11-11S17.066 0 11 0zM4.583 11a.916.916 0 1 1-1.833 0 8.2 8.2 0 0 1 .813-3.548L4.962 8.85A6.358 6.358 0 0 0 4.583 11zM11 13.75A2.753 2.753 0 0 1 8.25 11c0-.424.104-.82.275-1.178L4.662 5.958l1.296-1.296 3.863 3.864c.36-.171.755-.276 1.179-.276A2.753 2.753 0 0 1 13.75 11 2.753 2.753 0 0 1 11 13.75zm7.333-1.833a.916.916 0 0 1-.916-.917A6.424 6.424 0 0 0 11 4.583a6.37 6.37 0 0 0-2.15.379L7.453 3.563A8.177 8.177 0 0 1 11 2.75c4.55 0 8.25 3.701 8.25 8.25 0 .506-.41.917-.917.917z"></path>
		</symbol>
	
		<symbol id="zoom-2" viewBox="0 0 16 17">
			<path d="M12.7 11.3c.9-1.2 1.4-2.6 1.4-4.2 0-3.9-3.1-7.1-7-7.1S0 3.2 0 7.1c0 3.9 3.2 7.1 7.1 7.1 1.6 0 3.1-.5 4.2-1.4l3 3c.2.2.5.3.7.3.2 0 .5-.1.7-.3.4-.4.4-1 0-1.4l-3-3.1zm-5.6.8c-2.8 0-5.1-2.2-5.1-5S4.3 2 7.1 2s5.1 2.3 5.1 5.1-2.3 5-5.1 5z"></path>
		</symbol>
	
</svg>
